<svg width="34" height="35" viewBox="0 0 34 35" fill="none" xmlns="http://www.w3.org/2000/svg">
<path d="M17 35C26.3888 35 34 27.165 34 17.5C34 7.83502 26.3888 0 17 0C7.61116 0 0 7.83502 0 17.5C0 27.165 7.61116 35 17 35Z" fill="#FFCC4D"/>
<path d="M25.8164 22.9726C25.6483 22.8161 25.3971 22.8064 25.2167 22.9444C25.1798 22.9726 21.5126 25.7639 17 25.7639C12.4988 25.7639 8.81923 22.9726 8.78334 22.9444C8.60295 22.8064 8.35173 22.818 8.18361 22.9726C8.01645 23.1282 7.97867 23.3848 8.09484 23.5832C8.21667 23.7922 11.1331 28.6805 17 28.6805C22.8669 28.6805 25.7843 23.7922 25.9052 23.5832C26.0213 23.3839 25.9845 23.1282 25.8164 22.9726V22.9726Z" fill="#664500"/>
<path d="M17 25.8524C16.8602 25.8524 16.7252 25.8417 16.5863 25.8368V30.2274H17.4127V25.8358C17.2758 25.8407 17.1398 25.8524 17 25.8524Z" fill="#65471B"/>
<path d="M20.7778 25.2778C20.7929 25.2739 19.4083 25.6453 18.4677 25.7503C18.122 25.7911 17.7716 25.8242 17.4127 25.8368V30.2283H18.8889C19.9278 30.2283 20.7778 29.3533 20.7778 28.2839V25.2778ZM13.2222 25.2778C13.2071 25.2739 14.5917 25.6453 15.5323 25.7503C15.878 25.7911 16.2284 25.8242 16.5873 25.8368V30.2283H15.1111C14.0722 30.2283 13.2222 29.3533 13.2222 28.2839V25.2778Z" fill="white"/>
<path d="M25.8164 22.9726C25.6483 22.8161 25.397 22.8064 25.2167 22.9444C25.1883 22.9658 23.0832 24.5661 20.1063 25.3458C19.6879 25.4557 18.3458 25.7639 17.0028 25.7649C15.6579 25.7649 14.3121 25.4557 13.8937 25.3458C10.9168 24.5661 8.81166 22.9658 8.78333 22.9444C8.60388 22.8064 8.35171 22.8161 8.1836 22.9726C8.01549 23.1282 7.97866 23.3839 8.09483 23.5832C8.18644 23.7407 9.8751 26.565 13.2222 27.9397V26.1615C13.2071 26.1576 14.5917 26.529 15.5323 26.634C15.878 26.6749 16.2284 26.7079 16.5873 26.7206C16.7252 26.7254 16.8602 26.7361 17 26.7361C17.1398 26.7361 17.2748 26.7254 17.4137 26.7206C17.7725 26.7079 18.1229 26.6758 18.4686 26.634C19.4093 26.529 20.7938 26.1576 20.7787 26.1615V27.9397C24.1258 26.565 25.8145 23.7407 25.9061 23.5832C26.0213 23.3839 25.9845 23.1282 25.8164 22.9726V22.9726ZM25.1449 13.6344C25.1449 15.3008 24.259 16.6522 23.1653 16.6522C22.0726 16.6522 21.1858 15.3008 21.1858 13.6344C21.1858 11.9681 22.0717 10.6167 23.1653 10.6167C24.259 10.6167 25.1449 11.9681 25.1449 13.6344ZM8.9316 13.6344C8.9316 15.3008 9.81749 16.6522 10.9112 16.6522C12.0039 16.6522 12.8907 15.3008 12.8907 13.6344C12.8907 11.9681 12.0048 10.6167 10.9112 10.6167C9.81749 10.6167 8.9316 11.9681 8.9316 13.6344Z" fill="#65471B"/>
<path d="M32.8742 9.35959C32.7127 9.1982 31.6776 9.62598 30.6302 9.07667C28.4693 7.94306 23.0086 6.84931 19.4537 9.44223C19.0731 9.71931 17.4826 9.76598 17.0378 9.74653C16.5929 9.76695 15.0025 9.72028 14.6219 9.44223C11.0679 6.84931 5.60716 7.94306 3.44628 9.07667C2.39889 9.62598 1.36378 9.1982 1.20228 9.35959C0.968998 9.59195 0.968998 10.5224 1.20322 10.7557C1.43555 10.9881 2.59816 11.2564 2.82955 11.9535C3.06283 12.6515 3.06472 16.7738 4.91961 18.199C6.65644 19.5329 10.7081 19.9345 13.2761 18.4304C15.5163 17.1189 15.4379 14.3578 15.8487 12.7128C15.9951 12.1265 16.4078 11.831 17.0387 11.831C17.6696 11.831 18.0823 12.1265 18.2287 12.7128C18.6396 14.3568 18.5602 17.1189 20.8014 18.4304C23.3693 19.9335 27.421 19.532 29.1569 18.199C31.0127 16.7747 31.0146 12.6515 31.2469 11.9535C31.4783 11.2564 32.6409 10.9871 32.8733 10.7557C33.1075 10.5224 33.1084 9.59195 32.8742 9.35959V9.35959ZM13.8021 12.9082C13.7294 13.9825 13.5433 16.0456 12.2938 16.7776C11.5279 17.2268 10.5296 17.5 9.48505 17.5H9.48411C8.32717 17.5 6.7235 17.1626 6.09639 16.6814C5.3125 16.0796 5.01405 13.6024 4.90166 12.6758C4.82989 12.0857 4.63722 10.6439 5.26811 10.4222C6.26922 10.0713 7.66605 9.79709 9.095 9.79709C9.7495 9.79709 11.9482 9.83889 13.0192 10.5175C13.9683 11.1174 13.8427 12.3171 13.8021 12.9082V12.9082ZM29.1758 12.6622C29.0634 13.5897 28.7649 16.0796 27.9811 16.6814C27.3539 17.1626 25.7503 17.5 24.5933 17.5H24.5924C23.5469 17.5 22.5496 17.2268 21.7827 16.7776C20.5332 16.0465 20.3471 13.9961 20.2744 12.9218C20.2347 12.3307 20.1082 11.1222 21.0573 10.5224C22.1293 9.84376 24.327 9.79709 24.9815 9.79709C26.4104 9.79709 27.8063 10.0664 28.8084 10.4174C29.4393 10.639 29.2476 12.0721 29.1758 12.6622V12.6622Z" fill="#292F33"/>
</svg>
